<svg width="34" height="34" viewBox="0 0 34 34" fill="none" xmlns="http://www.w3.org/2000/svg">
<path opacity="0.1" fill-rule="evenodd" clip-rule="evenodd" d="M0 17C0 7.61116 7.61116 0 17 0C26.3888 0 34 7.61116 34 17C34 26.3888 26.3888 34 17 34C7.61116 34 0 26.3888 0 17Z" fill="white"/>
<path fill-rule="evenodd" clip-rule="evenodd" d="M26.0664 16.9874C26.0664 17.6006 26.004 18.2129 25.8814 18.8098C25.7618 19.3925 25.5848 19.9645 25.3528 20.5114C25.1261 21.0486 24.845 21.5662 24.5165 22.049C24.1929 22.5287 23.8201 22.9787 23.4105 23.389C23.0001 23.7974 22.5485 24.1692 22.0691 24.4942C21.5847 24.8204 21.0663 25.1012 20.5288 25.3289C19.9812 25.5596 19.4078 25.7365 18.8256 25.8558C18.228 25.9788 17.6134 26.0415 16.9994 26.0415C16.3849 26.0415 15.7703 25.9788 15.1736 25.8558C14.5905 25.7365 14.0171 25.5596 13.4699 25.3289C12.9325 25.1012 12.4136 24.8204 11.9292 24.4942C11.4497 24.1693 10.9982 23.7974 10.5886 23.389C10.1787 22.9787 9.80587 22.5287 9.4818 22.049C9.15506 21.5662 8.87346 21.0485 8.64591 20.5114C8.41389 19.9645 8.23638 19.3924 8.1164 18.8098C7.9951 18.2129 7.93311 17.6006 7.93311 16.9874C7.93311 16.3738 7.99507 15.7602 8.11644 15.1647C8.23642 14.582 8.41393 14.009 8.64595 13.4631C8.8735 12.9255 9.15509 12.4074 9.48183 11.9246C9.80591 11.4445 10.1787 10.9953 10.5887 10.5846C10.9982 10.1761 11.4498 9.80518 11.9293 9.48069C12.4136 9.15308 12.9325 8.87239 13.47 8.64424C14.0172 8.41298 14.5905 8.23573 15.1736 8.11727C15.7704 7.99526 16.3849 7.93335 16.9994 7.93335C17.6134 7.93335 18.228 7.99526 18.8256 8.11727C19.4078 8.23577 19.9812 8.41302 20.5288 8.64424C21.0663 8.87235 21.5847 9.15308 22.0691 9.48069C22.5486 9.80518 23.0002 10.1761 23.4106 10.5846C23.8201 10.9953 24.1929 11.4445 24.5165 11.9246C24.845 12.4074 25.1261 12.9255 25.3528 13.4631C25.5848 14.009 25.7618 14.582 25.8814 15.1647C26.004 15.7602 26.0664 16.3738 26.0664 16.9874ZM13.6957 9.99394C11.5364 11.0121 9.9249 12.9989 9.4224 15.3932C9.62652 15.395 12.8531 15.4357 16.5707 14.4494C15.2306 12.0718 13.7988 10.1315 13.6957 9.99394ZM17.2123 15.64C13.2255 16.8318 9.39982 16.746 9.26259 16.7408C9.26035 16.8239 9.25638 16.9043 9.25638 16.9874C9.25638 18.9737 10.0068 20.7845 11.2403 22.1537C11.2376 22.1497 13.3565 18.3959 17.535 17.0467C17.6359 17.0131 17.7387 16.983 17.8405 16.9538C17.6462 16.5144 17.4341 16.0741 17.2123 15.64ZM22.1129 11.1845C20.7497 9.9842 18.9598 9.25612 16.9993 9.25612C16.3702 9.25612 15.7597 9.33217 15.1748 9.47275C15.2908 9.62838 16.7452 11.555 18.0694 13.9829C20.991 12.8892 22.0938 11.2128 22.1129 11.1845ZM18.3683 18.235C18.3511 18.2407 18.3338 18.2457 18.3169 18.2518C13.7485 19.8422 12.2566 23.0471 12.2404 23.0821C13.5549 24.1029 15.2037 24.7188 16.9994 24.7188C18.0717 24.7188 19.093 24.5008 20.0223 24.106C19.9077 23.4305 19.4578 21.0627 18.3683 18.235ZM21.3262 23.3996C23.0647 22.228 24.2995 20.3677 24.6439 18.2129C24.4846 18.1616 22.3183 17.4768 19.8191 17.8769C20.8347 20.6639 21.2473 22.9336 21.3262 23.3996ZM18.6654 15.1351C18.8451 15.5038 19.0191 15.8791 19.1798 16.2562C19.237 16.3915 19.2927 16.5241 19.3472 16.6567C22.0071 16.3225 24.6276 16.8848 24.7397 16.9078C24.722 15.0749 24.0654 13.3927 22.9789 12.0758C22.9643 12.0965 21.7224 13.8883 18.6654 15.1351Z" fill="white"/>
</svg>
