<svg width="34" height="34" viewBox="0 0 34 34" fill="none" xmlns="http://www.w3.org/2000/svg">
<path opacity="0.1" fill-rule="evenodd" clip-rule="evenodd" d="M0 17C0 7.61116 7.61116 0 17 0C26.3888 0 34 7.61116 34 17C34 26.3888 26.3888 34 17 34C7.61116 34 0 26.3888 0 17Z" fill="white"/>
<path fill-rule="evenodd" clip-rule="evenodd" d="M17.0006 7.93335C14.5382 7.93335 14.2292 7.94412 13.2621 7.98813C12.2969 8.03233 11.638 8.18514 11.0615 8.40935C10.4652 8.64093 9.95934 8.95072 9.45538 9.45487C8.95104 9.95883 8.64126 10.4647 8.40892 11.0608C8.18414 11.6375 8.03114 12.2965 7.98769 13.2614C7.94444 14.2285 7.93311 14.5377 7.93311 17.0001C7.93311 19.4625 7.94406 19.7706 7.98788 20.7377C8.03227 21.7029 8.18509 22.3618 8.40911 22.9383C8.64088 23.5346 8.95066 24.0405 9.45481 24.5444C9.95858 25.0488 10.4644 25.3593 11.0604 25.5909C11.6373 25.8151 12.2963 25.9679 13.2613 26.0121C14.2285 26.0561 14.5373 26.0669 16.9995 26.0669C19.4621 26.0669 19.7701 26.0561 20.7373 26.0121C21.7025 25.9679 22.3621 25.8151 22.939 25.5909C23.5351 25.3593 24.0402 25.0488 24.544 24.5444C25.0483 24.0405 25.3581 23.5346 25.5904 22.9385C25.8133 22.3618 25.9663 21.7027 26.0117 20.7379C26.0551 19.7708 26.0664 19.4625 26.0664 17.0001C26.0664 14.5377 26.0551 14.2287 26.0117 13.2616C25.9663 12.2964 25.8133 11.6375 25.5904 11.061C25.3581 10.4647 25.0483 9.95883 24.544 9.45487C24.0396 8.95053 23.5353 8.64075 22.9384 8.40935C22.3604 8.18514 21.7012 8.03233 20.7359 7.98813C19.7688 7.94412 19.4609 7.93335 16.9978 7.93335H17.0006ZM16.1872 9.56723C16.4286 9.56685 16.698 9.56723 17.0006 9.56723C19.4214 9.56723 19.7083 9.57592 20.6643 9.61936C21.5483 9.65979 22.0281 9.8075 22.3477 9.9316C22.7708 10.0959 23.0725 10.2924 23.3896 10.6097C23.707 10.9271 23.9034 11.2293 24.0681 11.6524C24.1922 11.9716 24.3401 12.4514 24.3804 13.3354C24.4238 14.2912 24.4332 14.5783 24.4332 16.998C24.4332 19.4177 24.4238 19.7048 24.3804 20.6606C24.3399 21.5446 24.1922 22.0244 24.0681 22.3436C23.9038 22.7667 23.707 23.068 23.3896 23.3852C23.0723 23.7025 22.771 23.8989 22.3477 24.0633C22.0285 24.188 21.5483 24.3353 20.6643 24.3757C19.7085 24.4192 19.4214 24.4286 17.0006 24.4286C14.5796 24.4286 14.2926 24.4192 13.3369 24.3757C12.4528 24.3349 11.9731 24.1872 11.6533 24.0631C11.2302 23.8988 10.9279 23.7023 10.6106 23.385C10.2933 23.0676 10.0968 22.7662 9.9321 22.3429C9.808 22.0236 9.6601 21.5439 9.61986 20.6598C9.57642 19.7041 9.56773 19.4169 9.56773 16.9957C9.56773 14.5745 9.57642 14.2889 9.61986 13.3331C9.66028 12.4491 9.808 11.9694 9.9321 11.6498C10.0964 11.2266 10.2933 10.9244 10.6106 10.6071C10.9279 10.2897 11.2302 10.0933 11.6533 9.92858C11.9729 9.80391 12.4528 9.65658 13.3369 9.61596C14.1733 9.57819 14.4974 9.56685 16.1872 9.56496V9.56723ZM21.8404 11.0727C21.2397 11.0727 20.7523 11.5595 20.7523 12.1603C20.7523 12.761 21.2397 13.2483 21.8404 13.2483C22.441 13.2483 22.9284 12.761 22.9284 12.1603C22.9284 11.5597 22.441 11.0727 21.8404 11.0727ZM17.0006 12.3439C14.4293 12.3439 12.3445 14.4287 12.3445 17.0001C12.3445 19.5715 14.4293 21.6553 17.0006 21.6553C19.572 21.6553 21.656 19.5715 21.656 17.0001C21.656 14.4287 19.572 12.3439 17.0006 12.3439ZM17.0006 13.9778C18.6696 13.9778 20.0229 15.3309 20.0229 17.0001C20.0229 18.6691 18.6696 20.0223 17.0006 20.0223C15.3314 20.0223 13.9783 18.6691 13.9783 17.0001C13.9783 15.3309 15.3314 13.9778 17.0006 13.9778Z" fill="white"/>
</svg>
