<svg width="24" height="23" viewBox="0 0 24 23" fill="none" xmlns="http://www.w3.org/2000/svg">
<path d="M18.64 15.9212C18.2014 15.5227 17.7746 15.1127 17.36 14.6918C17.0117 14.356 16.802 14.1117 16.802 14.1117L14.1803 12.924C15.2299 11.7946 15.8092 10.3407 15.8095 8.835C15.8095 5.40692 12.8695 2.61667 9.25534 2.61667C5.64118 2.61667 2.70117 5.40692 2.70117 8.835C2.70117 12.2631 5.64118 15.0533 9.25534 15.0533C10.9061 15.0533 12.4107 14.467 13.5652 13.5085L14.817 15.9959C14.817 15.9959 15.0745 16.1948 15.4284 16.5253C15.7908 16.8478 16.2674 17.2839 16.7243 17.7397L17.9958 18.9762L18.5613 19.5501L20.5472 17.6659L19.9424 17.1294C19.5875 16.7989 19.1137 16.3601 18.64 15.9212ZM9.25534 13.2767C6.67393 13.2767 4.57379 11.2841 4.57379 8.835C4.57379 6.38587 6.67393 4.39333 9.25534 4.39333C11.8367 4.39333 13.9369 6.38587 13.9369 8.835C13.9369 11.2841 11.8367 13.2767 9.25534 13.2767Z" fill="black" fill-opacity="0.3"/>
</svg>
