<svg width="50" height="50" viewBox="0 0 50 50" fill="none" xmlns="http://www.w3.org/2000/svg">
<path fill-rule="evenodd" clip-rule="evenodd" d="M24.9913 0C38.7964 0 50 11.2036 50 25.0087C50 38.7964 38.7964 50 24.9913 50C11.1863 50 0 38.7964 0 25.0087C0 11.2036 11.1863 0 24.9913 0Z" fill="#E31E24"/>
<path d="M33.74 30.0623C33.6983 29.8043 33.5365 29.5838 33.2943 29.4528L29.7105 27.3413L29.681 27.3248C29.5308 27.2496 29.3648 27.2111 29.1968 27.2123C28.8965 27.2123 28.6098 27.3261 28.4108 27.5256L27.353 28.5838C27.3078 28.6268 27.1603 28.6891 27.1155 28.6913C27.1033 28.6903 25.8848 28.6026 23.6415 26.3591C21.4023 24.1203 21.3073 22.8981 21.3065 22.8981C21.3078 22.8356 21.3693 22.6886 21.413 22.6431L22.315 21.7413C22.6328 21.4228 22.728 20.8948 22.5395 20.4858L20.5475 16.7376C20.4028 16.4396 20.1215 16.2556 19.8095 16.2556C19.5888 16.2556 19.3758 16.3471 19.2093 16.5133L16.7505 18.9666C16.5148 19.2011 16.3118 19.6111 16.2675 19.9411C16.246 20.0988 15.8098 23.8643 20.9723 29.0276C25.355 33.4098 28.7725 33.7503 29.7163 33.7503C29.8312 33.7518 29.9461 33.7459 30.0603 33.7326C30.3893 33.6886 30.7988 33.4861 31.033 33.2513L33.4898 30.7948C33.6903 30.5933 33.7818 30.3271 33.74 30.0623Z" fill="white"/>
</svg>
