<svg width="33" height="29" viewBox="0 0 33 29" fill="none" xmlns="http://www.w3.org/2000/svg">
<g clip-path="url(#clip0_231_184)">
<path d="M1.375 1.20834H6.875L10.56 17.3879C10.6857 17.9442 11.0301 18.444 11.5329 18.7996C12.0356 19.1553 12.6647 19.3442 13.31 19.3333H26.675C27.3203 19.3442 27.9494 19.1553 28.4521 18.7996C28.9549 18.444 29.2993 17.9442 29.425 17.3879L31.625 7.25001H8.25M13.75 25.375C13.75 26.0424 13.1344 26.5833 12.375 26.5833C11.6156 26.5833 11 26.0424 11 25.375C11 24.7077 11.6156 24.1667 12.375 24.1667C13.1344 24.1667 13.75 24.7077 13.75 25.375ZM28.875 25.375C28.875 26.0424 28.2594 26.5833 27.5 26.5833C26.7406 26.5833 26.125 26.0424 26.125 25.375C26.125 24.7077 26.7406 24.1667 27.5 24.1667C28.2594 24.1667 28.875 24.7077 28.875 25.375Z" stroke="#1E1E1E" stroke-width="4" stroke-linecap="round" stroke-linejoin="round"/>
</g>
<defs>
<clipPath id="clip0_231_184">
<rect width="33" height="29" fill="white"/>
</clipPath>
</defs>
</svg>
