<svg width="34" height="34" viewBox="0 0 34 34" fill="none" xmlns="http://www.w3.org/2000/svg">
<path opacity="0.1" fill-rule="evenodd" clip-rule="evenodd" d="M0 17C0 7.61116 7.61116 0 17 0C26.3888 0 34 7.61116 34 17C34 26.3888 26.3888 34 17 34C7.61116 34 0 26.3888 0 17Z" fill="white"/>
<path fill-rule="evenodd" clip-rule="evenodd" d="M24.0842 11.1558C24.8645 11.3699 25.479 12.0008 25.6875 12.8019C26.0664 14.2539 26.0664 17.2834 26.0664 17.2834C26.0664 17.2834 26.0664 20.3128 25.6875 21.7649C25.479 22.566 24.8645 23.1968 24.0842 23.4111C22.6703 23.8001 16.9998 23.8001 16.9998 23.8001C16.9998 23.8001 11.3293 23.8001 9.9152 23.4111C9.13495 23.1968 8.52048 22.566 8.31195 21.7649C7.93311 20.3128 7.93311 17.2834 7.93311 17.2834C7.93311 17.2834 7.93311 14.2539 8.31195 12.8019C8.52048 12.0008 9.13495 11.3699 9.9152 11.1558C11.3293 10.7667 16.9998 10.7667 16.9998 10.7667C16.9998 10.7667 22.6703 10.7667 24.0842 11.1558ZM15.2998 14.7333V20.4L19.8331 17.5668L15.2998 14.7333Z" fill="white"/>
</svg>
